<?xml version="1.0" encoding="UTF-8" standalone="no"?>
<svg
   width="1027.7778"
   height="1002.4059"
   viewBox="0 0 1027.7778 1002.406"
   fill="none"
   version="1.1"
   id="svg9659"
   sodipodi:docname="Octicons-mark-github.svg"
   inkscape:version="1.2 (dc2aedaf03, 2022-05-15)"
   inkscape:export-filename="github.png"
   inkscape:export-xdpi="96"
   inkscape:export-ydpi="96"
   xmlns:inkscape="http://www.inkscape.org/namespaces/inkscape"
   xmlns:sodipodi="http://sodipodi.sourceforge.net/DTD/sodipodi-0.dtd"
   xmlns="http://www.w3.org/2000/svg"
   xmlns:svg="http://www.w3.org/2000/svg">
  <defs
     id="defs9663" />
  <sodipodi:namedview
     id="namedview9661"
     pagecolor="#ffffff"
     bordercolor="#000000"
     borderopacity="0.25"
     inkscape:showpageshadow="2"
     inkscape:pageopacity="0.0"
     inkscape:pagecheckerboard="0"
     inkscape:deskcolor="#d1d1d1"
     showgrid="false"
     inkscape:zoom="0.36230469"
     inkscape:cx="251.16981"
     inkscape:cy="496.8194"
     inkscape:window-width="1920"
     inkscape:window-height="974"
     inkscape:window-x="-11"
     inkscape:window-y="-11"
     inkscape:window-maximized="1"
     inkscape:current-layer="svg9659" />
  <path
     fill-rule="evenodd"
     clip-rule="evenodd"
     d="M 512,0 C 229.12,0 0,229.12 0,512 c 0,226.56 146.56,417.92 350.08,485.76001 25.6,4.47999 35.2,-10.88 35.2,-24.32001 0,-12.16 -0.64,-52.48 -0.64,-95.36 C 256,901.76 222.72,846.72 212.48,817.92 206.72,803.2 181.76,757.76 160,745.6 c -17.92,-9.6 -43.52,-33.28 -0.64,-33.92 40.32,-0.64 69.12,37.12 78.72,52.48 46.08,77.44 119.68,55.68 149.12,42.24 4.48,-33.28 17.92,-55.68 32.64,-68.48 -113.92,-12.8 -232.96,-56.96 -232.96,-252.8 0,-55.68 19.84,-101.76 52.48,-137.6 -5.12,-12.8 -23.04,-65.28 5.12,-135.68 0,0 42.88,-13.44 140.8,52.48 40.96,-11.52 84.48,-17.28 128,-17.28 43.52,0 87.04,5.76 128,17.28 97.92,-66.56 140.8,-52.48 140.8,-52.48 28.16,70.4 10.24,122.88 5.12,135.68 32.64,35.84 52.48,81.28 52.48,137.6 0,196.48 -119.68,240 -233.6,252.8 18.56,16 34.56,46.72 34.56,94.72 0,68.48 -0.64,123.52 -0.64,140.8 0,13.44001 9.6,29.44 35.2,24.32001 C 877.44,929.92 1024,737.92 1024,512 1024,229.12 794.88,0 512,0 Z"
     fill="#1B1F23"
     id="path9657"
     style="fill:#000000;fill-opacity:1;stroke-width:64" />
  <rect
     style="fill:none;fill-opacity:1;stroke:#008f00;stroke-width:2.377;stroke-opacity:1;paint-order:fill markers stroke"
     id="rect13308"
     width="1024.6377"
     height="999.26575"
     x="1.9516909"
     y="1.9516909" />
</svg>
