<?xml version="1.0" standalone="no"?>
<!DOCTYPE svg PUBLIC "-//W3C//DTD SVG 20010904//EN"
 "http://www.w3.org/TR/2001/REC-SVG-20010904/DTD/svg10.dtd">
<svg version="1.0" xmlns="http://www.w3.org/2000/svg"
 width="474.000000pt" height="474.000000pt" viewBox="0 0 474.000000 474.000000"
 preserveAspectRatio="xMidYMid meet">

<g transform="translate(0.000000,474.000000) scale(0.100000,-0.100000)"
fill="#000000" stroke="none">
<path d="M2130 4730 c0 -5 -17 -10 -37 -10 -69 0 -336 -60 -473 -106 -207 -69
-532 -238 -665 -346 -187 -152 -263 -224 -374 -354 -119 -140 -115 -135 -191
-250 -127 -193 -239 -439 -304 -670 -26 -94 -66 -307 -66 -355 0 -16 -4 -29
-10 -29 -6 0 -10 -88 -10 -245 0 -157 4 -245 10 -245 6 0 10 -13 10 -29 0 -47
40 -260 66 -353 107 -383 307 -731 588 -1027 303 -318 776 -579 1207 -666 70
-14 136 -25 148 -25 11 0 21 -4 21 -10 0 -6 115 -10 325 -10 179 0 325 4 325
8 0 5 35 14 79 21 617 94 1229 495 1579 1035 175 269 291 556 345 851 12 66
25 122 29 123 12 5 10 652 -2 652 -5 0 -10 10 -10 21 0 52 -55 285 -96 408
-117 350 -305 652 -569 916 -205 206 -387 337 -640 461 -229 112 -513 198
-728 220 -37 4 -67 11 -67 15 0 5 -110 9 -245 9 -157 0 -245 -4 -245 -10z
m415 -370 c606 -57 1119 -353 1471 -848 172 -243 288 -536 341 -862 25 -160
23 -438 -6 -605 -114 -654 -503 -1182 -1083 -1470 -324 -161 -693 -235 -1032
-207 -499 42 -927 235 -1271 576 -162 161 -279 322 -379 522 -145 291 -209
565 -210 894 -1 525 180 987 539 1378 164 178 422 361 645 457 320 139 659
195 985 165z"/>
<path d="M1363 3795 c-94 -57 -112 -197 -35 -278 39 -41 77 -58 131 -59 160
-1 246 181 144 303 -37 43 -74 59 -140 59 -44 0 -68 -6 -100 -25z"/>
<path d="M1280 2275 l0 -1005 185 0 185 0 0 1005 0 1005 -185 0 -185 0 0
-1005z"/>
<path d="M2010 2275 l0 -1005 448 0 c500 0 570 6 721 63 295 111 523 356 618
664 25 82 27 100 27 273 0 160 -3 196 -22 265 -87 314 -324 571 -631 685 -151
55 -207 60 -707 60 l-454 0 0 -1005z m974 615 c207 -53 370 -200 443 -401 24
-66 27 -88 28 -209 0 -117 -3 -145 -24 -209 -48 -146 -165 -284 -301 -355
-121 -64 -199 -76 -492 -76 l-258 0 0 635 0 635 263 0 c230 0 274 -3 341 -20z"/>
</g>
</svg>
